<svg width="100" height="22" viewBox="0 0 100 22" fill="none" xmlns="http://www.w3.org/2000/svg">
<path d="M0.471166 18.8308C0.368142 19.3734 0.724482 19.8968 1.26707 19.9998L10.1091 21.6787C10.6517 21.7817 11.1751 21.4254 11.2781 20.8828C11.3811 20.3402 11.0248 19.8168 10.4822 19.7138L2.6226 18.2215L4.11493 10.3619C4.21795 9.81931 3.86161 9.29593 3.31902 9.19291C2.77643 9.08989 2.25306 9.44623 2.15003 9.98882L0.471166 18.8308ZM99.5269 18.3334C86.584 4.52765 48.8742 -14.4787 0.890822 18.1908L2.0164 19.844C49.1014 -12.2139 85.7267 6.53736 98.0678 19.7013L99.5269 18.3334Z" fill="white"/>
</svg>
