<svg width="20" height="21" viewBox="0 0 20 21" fill="none" xmlns="http://www.w3.org/2000/svg">
<g id="Facebook">
<g id="Mono">
<path d="M11.0265 8.2903V7.05953C11.0265 6.52619 11.1496 6.23901 12.0111 6.23901H13.0778V4.18773H11.4368C9.38548 4.18773 8.56497 5.54158 8.56497 7.05953V8.2903H6.92394V10.3416H8.56497V16.4954H11.0265V10.3416H12.8316L13.0778 8.2903H11.0265Z" fill="white"/>
<path fill-rule="evenodd" clip-rule="evenodd" d="M14.332 2.11183H5.66802C3.51589 2.11183 1.77126 3.85647 1.77126 6.00859V14.6726C1.77126 16.8247 3.51589 18.5693 5.66801 18.5693H14.332C16.4841 18.5693 18.2287 16.8247 18.2287 14.6726V6.00859C18.2287 3.85647 16.4841 2.11183 14.332 2.11183ZM5.66802 0.340576C2.53766 0.340576 0 2.87823 0 6.00859V14.6726C0 17.8029 2.53766 20.3406 5.66801 20.3406H14.332C17.4623 20.3406 20 17.8029 20 14.6726V6.00859C20 2.87823 17.4623 0.340576 14.332 0.340576H5.66802Z" fill="white"/>
</g>
</g>
</svg>
