<svg width="117" height="43" viewBox="0 0 117 43" fill="none" xmlns="http://www.w3.org/2000/svg">
<g filter="url(#filter0_d_1128_3359)">
<circle cx="85.25" cy="17.8594" r="13" fill="white"/>
</g>
<g filter="url(#filter1_d_1128_3359)">
<circle cx="68.25" cy="17.8594" r="13" fill="white"/>
<path fill-rule="evenodd" clip-rule="evenodd" d="M68.5412 11.928C71.0222 11.928 73.0455 13.6036 73.0455 15.6581C73.0455 17.7125 71.022 19.3881 68.5412 19.3881C66.0602 19.3879 64.0369 17.7123 64.0369 15.6581C64.0369 13.6039 66.0602 11.928 68.5412 11.928ZM74.8282 24.3198H75.1426V24.6354H74.8282V24.3198ZM73.7571 24.3198H74.0716V24.6354H73.7571V24.3198ZM72.6863 24.3198H73.0008V24.6354H72.6863V24.3198ZM71.6153 24.3198H71.9298V24.6354H71.6153V24.3198ZM70.5445 24.3198H70.859V24.6354H70.5445V24.3198ZM69.4735 24.3198H69.788V24.6354H69.4735V24.3198ZM68.4027 24.3198H68.7172V24.6354H68.4027V24.3198ZM67.3317 24.3198H67.6461V24.6354H67.3317V24.3198ZM66.2609 24.3198H66.5754V24.6354H66.2609V24.3198ZM65.1898 24.3198H65.5043V24.6354H65.1898V24.3198ZM64.1191 24.3198H64.4336V24.6354H64.1191V24.3198ZM63.048 24.3198H63.3625V24.6354H63.048V24.3198ZM61.9773 24.3198H62.2917V24.6354H61.9773V24.3198ZM62.2125 11.1701H74.9369V23.3668H62.2125V11.1701ZM61.7773 10.7334H75.3721V23.8036H61.7773V10.7334ZM68.5146 12.5261C69.8483 12.5261 70.9393 13.6212 70.9393 14.9594V16.2559C70.9393 17.5943 69.848 18.6892 68.5146 18.6892C67.1809 18.6892 66.09 17.5941 66.09 16.2559V14.9594C66.09 13.6212 67.1809 12.5261 68.5146 12.5261ZM64.727 18.944C65.205 19.175 68.0545 20.436 68.5678 20.507C69.0811 20.578 70.1607 20.8623 71.3819 20.5249C72.6031 20.1874 72.5853 19.9033 72.9216 19.9033C73.2579 19.9033 73.2932 20.1164 73.1518 20.3296C73.0101 20.5428 72.0898 21.1467 71.8245 21.4308C71.5589 21.715 70.9574 22.3368 70.7979 22.4611C70.6386 22.5855 70.2314 22.9229 69.4174 22.3544C68.6031 21.7859 66.7803 20.6671 66.0368 20.2762C65.2935 19.8854 64.3022 19.4415 64.1252 19.3527C63.9481 19.2638 63.8421 19.1574 63.9659 18.9264C64.0898 18.6953 64.2493 18.7129 64.727 18.944Z" fill="#762581"/>
</g>
<g filter="url(#filter2_d_1128_3359)">
<circle cx="51.25" cy="17.8594" r="13" fill="white"/>
<path d="M60.2257 17.8882C60.1946 17.9206 60.1641 17.9537 60.132 17.9852C57.2884 20.8007 54.4446 23.6159 51.6027 26.4331C51.5378 26.4975 51.5075 26.5008 51.4405 26.4342C48.5829 23.6011 45.7229 20.7703 42.863 17.9391C42.836 17.9123 42.8064 17.8882 42.7785 17.8626C42.7769 17.8613 42.7771 17.8567 42.7783 17.8546C42.7796 17.8519 42.7829 17.8503 42.7855 17.8482C42.8365 17.8247 42.8903 17.8193 42.9461 17.8193C45.7635 17.8197 48.5807 17.8195 51.3981 17.8199C51.4337 17.8199 51.4692 17.8199 51.5048 17.8247C51.5178 17.8263 51.5302 17.8292 51.5427 17.8332C51.5965 17.8497 51.652 17.8426 51.7066 17.8426C54.4764 17.843 57.2461 17.843 60.0159 17.843C60.0611 17.843 60.1066 17.8407 60.1517 17.8447C60.182 17.8474 60.2189 17.844 60.2257 17.8882Z" fill="#00318A"/>
<path d="M51.5309 17.8495C51.4921 17.8503 51.4533 17.8514 51.4146 17.8514C48.5803 17.8514 45.7458 17.8516 42.9115 17.8514C42.8695 17.8514 42.8274 17.8491 42.7854 17.848C42.8021 17.8287 42.8178 17.8085 42.8359 17.7906C44.2538 16.3864 45.672 14.9823 47.0903 13.5784C47.1107 13.5582 47.1336 13.5403 47.1554 13.5215C47.2068 13.4993 47.2606 13.4941 47.3164 13.4941C50.1183 13.4945 52.9201 13.4943 55.722 13.4947C55.764 13.4947 55.8063 13.493 55.8469 13.5055C55.8809 13.5194 55.8902 13.5407 55.8671 13.5721C55.8479 13.5981 55.8242 13.62 55.8015 13.6427C54.4107 15.0198 53.0198 16.397 51.6287 17.7737C51.5991 17.8024 51.5748 17.8387 51.5309 17.8495Z" fill="#2465AC"/>
<path d="M55.8795 13.5398C55.8413 13.5135 55.7979 13.526 55.757 13.526C52.9349 13.5254 50.1128 13.5254 47.2907 13.5252C47.2455 13.5252 47.2004 13.5231 47.1552 13.5219C47.1746 13.5008 47.1932 13.4786 47.2136 13.4584C48.6244 12.0615 50.0359 10.6649 51.4447 9.26607C51.508 9.20313 51.5397 9.20525 51.6016 9.26665C52.9856 10.6405 54.3719 12.012 55.7575 13.3839C55.81 13.4359 55.8624 13.4881 55.9149 13.54C55.903 13.5552 55.8912 13.5554 55.8795 13.5398Z" fill="#7B9ED2"/>
<path d="M55.8795 13.54C55.8914 13.5402 55.9032 13.5404 55.9151 13.5406C57.3528 14.9639 58.7906 16.387 60.2281 17.8105C60.2394 17.8217 60.2483 17.835 60.2584 17.8471C60.2345 17.8727 60.2035 17.8606 60.1757 17.8606C57.3245 17.8611 54.4733 17.8611 51.622 17.8606C51.5906 17.8606 51.5572 17.8702 51.5278 17.85L51.5307 17.8502C51.5576 17.8225 51.5836 17.794 51.611 17.7668C53.034 16.358 54.4567 14.9489 55.8795 13.54Z" fill="#9BBC29"/>
</g>
<g filter="url(#filter3_d_1128_3359)">
<circle cx="34.25" cy="17.8594" r="13" fill="white"/>
<path d="M23.1108 16.9051C23.1159 16.8955 23.1234 16.8864 23.1256 16.8763C23.1724 16.6464 23.3231 16.5274 23.5445 16.4869C23.6075 16.4754 23.6726 16.4707 23.7366 16.4707C24.5826 16.4697 25.4284 16.4701 26.2744 16.4702C26.2964 16.4702 26.3182 16.4723 26.3458 16.4738C26.3458 16.6121 26.3458 16.7476 26.3458 16.8941C25.4213 16.8941 24.4987 16.8941 23.5714 16.8941C23.5714 17.4083 23.5714 17.9116 23.5714 18.4283C24.4957 18.4283 25.4202 18.4283 26.348 18.4283C26.348 18.5752 26.348 18.7085 26.348 18.853C26.3154 18.853 26.2856 18.853 26.256 18.853C25.4074 18.853 24.5586 18.855 23.7099 18.8505C23.606 18.85 23.4984 18.8258 23.3996 18.792C23.2544 18.7424 23.1719 18.6264 23.131 18.4804C23.1251 18.4593 23.1177 18.4388 23.1108 18.4182C23.1108 17.9137 23.1108 17.4095 23.1108 16.9051Z" fill="#1B1B1B"/>
<path d="M37.3059 18.8493C37.3059 18.0532 37.3059 17.2669 37.3059 16.4746C37.3367 16.4729 37.3638 16.4702 37.3908 16.4702C38.2704 16.47 39.15 16.4685 40.0294 16.4719C40.143 16.4724 40.2597 16.4857 40.3693 16.5144C40.5802 16.5699 40.6853 16.7094 40.7026 16.9262C40.7033 16.9346 40.7041 16.943 40.7039 16.9514C40.6974 17.3806 40.7554 17.2695 40.4444 17.5414C40.4069 17.5742 40.3696 17.607 40.3251 17.6461C40.4227 17.7302 40.5137 17.812 40.6085 17.889C40.6772 17.9448 40.7088 18.0121 40.705 18.1006C40.6999 18.2124 40.7088 18.3255 40.696 18.4361C40.6702 18.6592 40.5286 18.7923 40.2842 18.8343C40.2184 18.8458 40.1506 18.8526 40.0839 18.8526C39.1791 18.8537 38.2744 18.8531 37.3696 18.853C37.3502 18.8531 37.3312 18.851 37.3059 18.8493ZM37.7522 18.445C38.5888 18.445 39.4152 18.445 40.242 18.445C40.242 18.2445 40.242 18.0504 40.242 17.8566C39.408 17.8566 38.5812 17.8566 37.7522 17.8566C37.7522 18.0556 37.7522 18.2479 37.7522 18.445ZM37.7522 17.4528C38.5869 17.4528 39.4119 17.4528 40.2432 17.4528C40.2432 17.2595 40.2432 17.0708 40.2432 16.8787C39.4107 16.8787 38.5834 16.8787 37.7522 16.8787C37.7522 17.0714 37.7522 17.2582 37.7522 17.4528Z" fill="#1B1B1B"/>
<path d="M45.1489 17.6451C45.2458 17.729 45.3343 17.8095 45.4271 17.8846C45.4979 17.942 45.5337 18.0104 45.529 18.1025C45.5251 18.178 45.5281 18.2538 45.5281 18.3294C45.528 18.6195 45.3918 18.7842 45.1064 18.8347C45.0405 18.8463 44.9728 18.8526 44.9061 18.8528C44.0041 18.854 43.1023 18.8535 42.2004 18.8533C42.1787 18.8533 42.157 18.8508 42.1308 18.8493C42.1308 18.0568 42.1308 17.2683 42.1308 16.4744C42.1616 16.4729 42.1888 16.4704 42.2159 16.4704C43.0953 16.4702 43.9749 16.4685 44.8543 16.4722C44.9704 16.4727 45.0898 16.488 45.2019 16.5179C45.4021 16.5711 45.5095 16.7114 45.526 16.9192C45.5273 16.936 45.5283 16.9528 45.5281 16.9694C45.5239 17.377 45.5712 17.2763 45.2742 17.5369C45.2347 17.5713 45.1948 17.6053 45.1489 17.6451ZM45.0735 18.4477C45.0735 18.2759 45.0696 18.1112 45.0752 17.9468C45.0778 17.8705 45.057 17.8478 44.9783 17.8482C44.2088 17.8512 43.4394 17.8502 42.6699 17.8502C42.6401 17.8502 42.6102 17.8502 42.5784 17.8502C42.5784 18.0558 42.5784 18.2499 42.5784 18.4477C43.4091 18.4477 44.2337 18.4477 45.0735 18.4477ZM45.0679 17.4525C45.0679 17.2597 45.0679 17.0711 45.0679 16.8776C44.2361 16.8776 43.4096 16.8776 42.5779 16.8776C42.5779 17.0704 42.5779 17.2589 42.5779 17.4525C43.4091 17.4525 44.2357 17.4525 45.0679 17.4525Z" fill="#1B1B1B"/>
<path d="M28.104 17.4421C28.9096 17.4421 29.7011 17.4421 30.5034 17.4421C30.5034 17.1199 30.5034 16.7997 30.5034 16.4749C30.6552 16.4749 30.7964 16.4749 30.9431 16.4749C30.9431 17.2669 30.9431 18.0549 30.9431 18.8483C30.799 18.8483 30.6579 18.8483 30.5083 18.8483C30.5083 18.5225 30.5083 18.1991 30.5083 17.8687C29.7065 17.8687 28.913 17.8687 28.1082 17.8687C28.1082 18.1931 28.1082 18.5187 28.1082 18.8488C27.9556 18.8488 27.8144 18.8488 27.6683 18.8488C27.6683 18.0566 27.6683 17.2684 27.6683 16.4751C27.8128 16.4751 27.954 16.4751 28.104 16.4751C28.104 16.796 28.104 17.1138 28.104 17.4421Z" fill="#1B1B1B"/>
<path d="M32.4975 16.4699C32.5394 16.4699 32.5673 16.4699 32.5952 16.4699C32.707 16.4699 32.8187 16.4699 32.9406 16.4699C32.9406 17.1224 32.9406 17.7702 32.9406 18.426C32.9773 18.4282 33.0043 18.4313 33.0314 18.4313C33.7567 18.4314 34.4821 18.4302 35.2074 18.4329C35.2867 18.4333 35.3111 18.4124 35.3106 18.3309C35.3072 17.7455 35.3088 17.16 35.3088 16.5746C35.3088 16.544 35.3088 16.5136 35.3088 16.4764C35.456 16.4764 35.5972 16.4764 35.7488 16.4764C35.7501 16.5035 35.753 16.5327 35.7532 16.5622C35.7535 17.1336 35.754 17.705 35.7532 18.2764C35.7527 18.6533 35.5555 18.8516 35.1768 18.8526C34.4767 18.8543 33.7765 18.8545 33.0764 18.8513C32.9939 18.851 32.9085 18.8352 32.8295 18.8101C32.6369 18.7491 32.5307 18.6096 32.5075 18.4106C32.4974 18.3247 32.498 18.2373 32.498 18.1506C32.4972 17.6239 32.4975 17.0973 32.4975 16.5707C32.4975 16.5406 32.4975 16.5104 32.4975 16.4699Z" fill="#1B1B1B"/>
</g>
<g filter="url(#filter4_d_1128_3359)">
<circle cx="17.25" cy="17.8594" r="13" fill="white"/>
<path d="M24.4784 10.5352H10.0215V24.9967H24.4784V10.5352Z" fill="#004B92"/>
<path d="M18.98 17.6731L24.4785 10.5352H23.6705L18.1533 17.6731H18.98Z" fill="#E1033C"/>
<path d="M16.0913 22.5635L16.486 22.0201C16.4489 21.9783 16.2259 21.3003 16.2259 21.3003L15.8405 21.8018L16.0913 22.5635ZM13.9178 19.2012C13.7646 19.5355 12.8497 20.6455 12.8497 20.6455H14.294C14.294 20.6455 14.0154 19.7817 13.9689 19.5913C13.9271 19.4334 13.9411 19.2383 13.9411 19.2105L13.9178 19.2012ZM19.4629 19.2012C19.3096 19.5355 18.3947 20.6455 18.3947 20.6455H19.839C19.839 20.6455 19.5557 19.7817 19.5093 19.5913C19.4721 19.4334 19.4814 19.2383 19.4814 19.2105L19.4629 19.2012ZM21.0697 20.8637C21.3205 21.5696 21.8406 23.404 22.0496 23.548H20.6842C20.6842 23.548 20.6796 23.2786 20.6192 23.065C20.5588 22.856 20.0712 21.2678 20.0712 21.2678H17.9024L17.5634 21.7507C17.5634 21.7507 17.9721 23.0325 18 23.0929C18.0418 23.2043 18.2415 23.5434 18.2415 23.5434H16.9365C16.9365 23.5434 16.904 23.3483 16.89 23.2694C16.8761 23.2043 16.7647 22.8421 16.7647 22.8421C16.7647 22.8421 16.4674 23.1672 16.3885 23.3158C16.3049 23.4691 16.2724 23.5434 16.2724 23.5434H15.2507C15.2507 23.5434 15.2182 23.3483 15.2043 23.2694C15.195 23.2043 15.0696 22.8142 15.0696 22.8142C15.0696 22.8142 14.7816 23.1625 14.698 23.3112C14.6191 23.4644 14.5819 23.5434 14.5819 23.5434H13.5649C13.5649 23.5434 13.8482 23.274 13.9457 23.1533C14.1129 22.9582 14.7445 22.1362 14.7445 22.1362L14.4937 21.2678H12.3482C12.3482 21.2678 11.1221 22.8793 11.0757 22.9257C11.0246 22.9721 10.667 23.4876 10.6624 23.5434H10.0215V23.1393L10.0447 23.1115C10.0633 23.0975 10.9735 21.969 11.8094 20.8544C12.5618 19.8838 13.2677 18.9411 13.3281 18.8482C13.4767 18.6299 13.6949 18.1609 13.6949 18.1609H14.8095C14.8095 18.1609 14.842 18.5928 14.8745 18.695C14.9024 18.7878 15.5804 21.0123 15.5944 21.0356L15.9659 20.5526L15.325 18.5835C15.325 18.5835 15.1764 18.212 15.1253 18.1562H16.4256C16.4256 18.1562 16.4164 18.3467 16.4674 18.5092C16.5185 18.6717 16.7972 19.6749 16.7972 19.6749C16.7972 19.6749 17.6795 18.5649 17.7353 18.486C17.8328 18.3513 17.8421 18.1562 17.8421 18.1562H18.9241C18.9241 18.1562 18.7291 18.3002 18.3808 18.7414C18.2647 18.8854 17.1222 20.339 17.1222 20.339C17.1222 20.339 17.2198 20.678 17.2709 20.8452C17.2848 20.8916 17.2941 20.9288 17.2941 20.9288C17.2941 20.9288 17.3173 20.9009 17.3637 20.8452C17.6563 20.4736 18.9984 18.7182 19.082 18.5649C19.1471 18.4442 19.2399 18.3049 19.2957 18.1562H20.3499C20.3499 18.1562 20.3731 18.472 20.4056 18.5603L21.0697 20.8637Z" fill="white"/>
</g>
<circle cx="84.3921" cy="18.6509" r="0.885254" fill="#B5B5B5"/>
<circle cx="87.8911" cy="18.6509" r="0.885254" fill="#B5B5B5"/>
<circle cx="91.3901" cy="18.6509" r="0.885254" fill="#B5B5B5"/>
<defs>
<filter id="filter0_d_1128_3359" x="67.7773" y="0.265625" width="43" height="43" filterUnits="userSpaceOnUse" color-interpolation-filters="sRGB">
<feFlood flood-opacity="0" result="BackgroundImageFix"/>
<feColorMatrix in="SourceAlpha" type="matrix" values="0 0 0 0 0 0 0 0 0 0 0 0 0 0 0 0 0 0 127 0" result="hardAlpha"/>
<feOffset dx="4" dy="4"/>
<feGaussianBlur stdDeviation="4"/>
<feColorMatrix type="matrix" values="0 0 0 0 0 0 0 0 0 0 0 0 0 0 0 0 0 0 0.05 0"/>
<feBlend mode="normal" in2="BackgroundImageFix" result="effect1_dropShadow_1128_3359"/>
<feBlend mode="normal" in="SourceGraphic" in2="effect1_dropShadow_1128_3359" result="shape"/>
</filter>
<filter id="filter1_d_1128_3359" x="50.7773" y="0.265625" width="66.0027" height="43" filterUnits="userSpaceOnUse" color-interpolation-filters="sRGB">
<feFlood flood-opacity="0" result="BackgroundImageFix"/>
<feColorMatrix in="SourceAlpha" type="matrix" values="0 0 0 0 0 0 0 0 0 0 0 0 0 0 0 0 0 0 127 0" result="hardAlpha"/>
<feOffset dx="4" dy="4"/>
<feGaussianBlur stdDeviation="4"/>
<feColorMatrix type="matrix" values="0 0 0 0 0 0 0 0 0 0 0 0 0 0 0 0 0 0 0.05 0"/>
<feBlend mode="normal" in2="BackgroundImageFix" result="effect1_dropShadow_1128_3359"/>
<feBlend mode="normal" in="SourceGraphic" in2="effect1_dropShadow_1128_3359" result="shape"/>
</filter>
<filter id="filter2_d_1128_3359" x="33.7773" y="0.265625" width="76.3866" height="43" filterUnits="userSpaceOnUse" color-interpolation-filters="sRGB">
<feFlood flood-opacity="0" result="BackgroundImageFix"/>
<feColorMatrix in="SourceAlpha" type="matrix" values="0 0 0 0 0 0 0 0 0 0 0 0 0 0 0 0 0 0 127 0" result="hardAlpha"/>
<feOffset dx="4" dy="4"/>
<feGaussianBlur stdDeviation="4"/>
<feColorMatrix type="matrix" values="0 0 0 0 0 0 0 0 0 0 0 0 0 0 0 0 0 0 0.05 0"/>
<feBlend mode="normal" in2="BackgroundImageFix" result="effect1_dropShadow_1128_3359"/>
<feBlend mode="normal" in="SourceGraphic" in2="effect1_dropShadow_1128_3359" result="shape"/>
</filter>
<filter id="filter3_d_1128_3359" x="16.7773" y="0.265625" width="43" height="43" filterUnits="userSpaceOnUse" color-interpolation-filters="sRGB">
<feFlood flood-opacity="0" result="BackgroundImageFix"/>
<feColorMatrix in="SourceAlpha" type="matrix" values="0 0 0 0 0 0 0 0 0 0 0 0 0 0 0 0 0 0 127 0" result="hardAlpha"/>
<feOffset dx="4" dy="4"/>
<feGaussianBlur stdDeviation="4"/>
<feColorMatrix type="matrix" values="0 0 0 0 0 0 0 0 0 0 0 0 0 0 0 0 0 0 0.05 0"/>
<feBlend mode="normal" in2="BackgroundImageFix" result="effect1_dropShadow_1128_3359"/>
<feBlend mode="normal" in="SourceGraphic" in2="effect1_dropShadow_1128_3359" result="shape"/>
</filter>
<filter id="filter4_d_1128_3359" x="-0.222656" y="0.265625" width="43" height="43" filterUnits="userSpaceOnUse" color-interpolation-filters="sRGB">
<feFlood flood-opacity="0" result="BackgroundImageFix"/>
<feColorMatrix in="SourceAlpha" type="matrix" values="0 0 0 0 0 0 0 0 0 0 0 0 0 0 0 0 0 0 127 0" result="hardAlpha"/>
<feOffset dx="4" dy="4"/>
<feGaussianBlur stdDeviation="4"/>
<feColorMatrix type="matrix" values="0 0 0 0 0 0 0 0 0 0 0 0 0 0 0 0 0 0 0.05 0"/>
<feBlend mode="normal" in2="BackgroundImageFix" result="effect1_dropShadow_1128_3359"/>
<feBlend mode="normal" in="SourceGraphic" in2="effect1_dropShadow_1128_3359" result="shape"/>
</filter>
</defs>
</svg>
