<svg width="20" height="21" viewBox="0 0 20 21" fill="none" xmlns="http://www.w3.org/2000/svg">
<g id="Instagram">
<g id="Mono">
<path d="M9.9768 5.21426C8.61689 5.21426 7.31269 5.75448 6.35109 6.71608C5.38949 7.67768 4.84927 8.98188 4.84927 10.3418C4.84927 11.7017 5.38949 13.0059 6.35109 13.9675C7.31269 14.9291 8.61689 15.4693 9.9768 15.4693C11.3367 15.4693 12.6409 14.9291 13.6025 13.9675C14.5641 13.0059 15.1043 11.7017 15.1043 10.3418C15.1043 8.98188 14.5641 7.67768 13.6025 6.71608C12.6409 5.75448 11.3367 5.21426 9.9768 5.21426ZM9.9768 13.6718C9.09333 13.6718 8.24605 13.3208 7.62134 12.6961C6.99664 12.0714 6.64568 11.2241 6.64568 10.3407C6.64568 9.45721 6.99664 8.60993 7.62134 7.98522C8.24605 7.36052 9.09333 7.00956 9.9768 7.00956C10.8603 7.00956 11.7075 7.36052 12.3323 7.98522C12.957 8.60993 13.3079 9.45721 13.3079 10.3407C13.3079 11.2241 12.957 12.0714 12.3323 12.6961C11.7075 13.3208 10.8603 13.6718 9.9768 13.6718Z" fill="white"/>
<path d="M15.3073 6.27432C15.9675 6.27432 16.5027 5.73913 16.5027 5.07893C16.5027 4.41874 15.9675 3.88354 15.3073 3.88354C14.6471 3.88354 14.1119 4.41874 14.1119 5.07893C14.1119 5.73913 14.6471 6.27432 15.3073 6.27432Z" fill="white"/>
<path d="M19.44 3.7848C19.1833 3.12188 18.791 2.51987 18.2882 2.01729C17.7855 1.51471 17.1833 1.12265 16.5203 0.866192C15.7444 0.574948 14.9248 0.417468 14.0963 0.400456C13.0284 0.353883 12.6902 0.340576 9.98226 0.340576C7.27434 0.340576 6.92726 0.340576 5.86826 0.400456C5.04035 0.416598 4.22129 0.574111 3.44644 0.866192C2.78325 1.12235 2.18093 1.51431 1.67813 2.01692C1.17532 2.51954 0.783132 3.12171 0.526724 3.7848C0.235423 4.56059 0.078304 5.38032 0.062098 6.20884C0.0144156 7.2756 0 7.61381 0 10.3228C0 13.0308 -7.45058e-09 13.3756 0.062098 14.4368C0.0787314 15.2663 0.235085 16.0846 0.526724 16.862C0.783852 17.5248 1.17642 18.1268 1.67935 18.6293C2.18228 19.1319 2.7845 19.524 3.44755 19.7806C4.22093 20.0835 5.04033 20.2523 5.87048 20.2796C6.93834 20.3262 7.27656 20.3406 9.98448 20.3406C12.6924 20.3406 13.0395 20.3406 14.0985 20.2796C14.9269 20.2627 15.7465 20.1056 16.5225 19.815C17.1854 19.5579 17.7873 19.1655 18.2901 18.6628C18.7928 18.1601 19.1852 17.5581 19.4422 16.8952C19.7339 16.119 19.8902 15.3007 19.9069 14.4712C19.9545 13.4044 19.969 13.0662 19.969 10.3572C19.969 7.64818 19.969 7.30443 19.9069 6.24322C19.8939 5.40298 19.736 4.57128 19.44 3.7848ZM18.0894 14.3548C18.0822 14.9938 17.9656 15.6269 17.7445 16.2266C17.578 16.6578 17.323 17.0494 16.9961 17.3761C16.6691 17.7029 16.2774 17.9576 15.8461 18.1239C15.2531 18.344 14.6267 18.4606 13.9942 18.4688C12.9408 18.5176 12.6436 18.5298 9.94234 18.5298C7.23886 18.5298 6.96274 18.5298 5.88933 18.4688C5.25718 18.461 4.6311 18.3444 4.03859 18.1239C3.60577 17.9587 3.21247 17.7044 2.88411 17.3776C2.55575 17.0507 2.29966 16.6586 2.1324 16.2266C1.91444 15.6334 1.79786 15.0077 1.78754 14.3758C1.73985 13.3224 1.72876 13.0252 1.72876 10.3239C1.72876 7.62157 1.72876 7.34546 1.78754 6.27094C1.7947 5.63224 1.91135 4.9995 2.1324 4.40023C2.47061 3.52532 3.16367 2.83669 4.03859 2.50181C4.63139 2.2824 5.25729 2.16577 5.88933 2.15694C6.94389 2.10926 7.23996 2.09595 9.94234 2.09595C12.6447 2.09595 12.9219 2.09595 13.9942 2.15694C14.6268 2.16455 15.2532 2.28122 15.8461 2.50181C16.2774 2.66845 16.669 2.92341 16.996 3.25035C17.3229 3.57728 17.5779 3.96895 17.7445 4.40023C17.9625 4.99344 18.0791 5.61909 18.0894 6.25098C18.1371 7.30554 18.1493 7.60161 18.1493 10.304C18.1493 13.0052 18.1493 13.2958 18.1016 14.3559H18.0894V14.3548Z" fill="white"/>
</g>
</g>
</svg>
