<svg width="20" height="21" viewBox="0 0 20 21" fill="none" xmlns="http://www.w3.org/2000/svg">
<g id="Linkedin">
<g id="Mono">
<path fill-rule="evenodd" clip-rule="evenodd" d="M14.332 2.11183H5.66802C3.51589 2.11183 1.77126 3.85647 1.77126 6.00859V14.6726C1.77126 16.8247 3.51589 18.5693 5.66802 18.5693H14.332C16.4841 18.5693 18.2287 16.8247 18.2287 14.6726V6.00859C18.2287 3.85647 16.4841 2.11183 14.332 2.11183ZM5.66802 0.340576C2.53766 0.340576 0 2.87823 0 6.00859V14.6726C0 17.8029 2.53766 20.3406 5.66802 20.3406H14.332C17.4623 20.3406 20 17.8029 20 14.6726V6.00859C20 2.87823 17.4623 0.340576 14.332 0.340576H5.66802Z" fill="white"/>
<path d="M7.38328 6.72854C7.38328 7.28278 6.93779 7.73188 6.38796 7.73188C5.83813 7.73188 5.39264 7.28278 5.39264 6.72854C5.39264 6.17469 5.83813 5.72519 6.38796 5.72519C6.93779 5.72519 7.38328 6.17469 7.38328 6.72854ZM7.3913 8.53456H5.38462V14.956H7.3913V8.53456ZM10.5948 8.53456H8.60094V14.956H10.5952V11.5851C10.5952 9.71088 13.0149 9.55757 13.0149 11.5851V14.956H15.0167V10.89C15.0167 7.72747 11.436 7.84265 10.5948 9.39944V8.53456Z" fill="white"/>
</g>
</g>
</svg>
