<svg width="115" height="26" viewBox="0 0 115 26" fill="none" xmlns="http://www.w3.org/2000/svg">
<path d="M10.4306 7.36949C11.0997 3.62204 9.18447 0.840454 5.92647 0.840454H0V20.5467H7.54066C11.7048 20.5467 15.0813 17.1536 15.0813 12.9656C15.0813 10.3925 13.0102 8.42631 10.4306 7.36949ZM7.54066 18.2418H2.29417V3.14694H5.92647C7.51415 3.14694 8.86788 4.1771 9.36071 5.60709V5.60866C9.4886 5.98184 9.55878 6.38167 9.55878 6.79875C9.55878 7.22524 9.48548 7.63448 9.35135 8.01393C11.3539 8.75872 12.7871 10.6983 12.7871 12.9672C12.7871 15.8757 10.4337 18.2418 7.54066 18.2418Z" fill="#1B1B1B"/>
<path d="M6.77707 9.97972C6.64295 10.0064 6.5057 10.0283 6.37002 10.0409C5.81948 10.0957 5.27362 10.0299 4.75739 9.86212C3.90429 10.6069 3.43018 12.1451 3.43018 13.2301C4.70593 13.5092 6.21094 12.9024 7.33073 12.0463C8.45052 11.1918 8.96519 9.81508 9.04161 8.50426C9.04161 8.50426 9.03849 8.50426 9.03693 8.50426C8.45364 9.33842 7.77521 9.77588 6.77707 9.97972Z" fill="#1B1B1B"/>
<path d="M6.37962 9.26507C7.36528 9.13963 8.19187 8.58143 8.69874 7.80529C8.01564 7.1828 7.07676 6.84882 6.09109 6.97426C5.10542 7.0997 4.27884 7.6579 3.77197 8.43404C4.45507 9.05653 5.39395 9.39051 6.37962 9.26507Z" fill="#1B1B1B"/>
<path d="M23.7343 7.15274C21.7692 7.15274 20.1472 7.8254 18.9167 9.15191C17.7579 10.4235 17.1699 12.0589 17.1699 14.0142C17.1699 15.9538 17.7844 17.5892 18.9962 18.878C20.2439 20.203 21.8815 20.8741 23.8637 20.8741C25.4233 20.8741 26.7193 20.4978 27.7159 19.753C28.7078 19.0113 29.444 18.0251 29.8994 16.8256L29.9602 16.6672H27.5896L27.5568 16.7299C26.8192 18.1442 25.5855 18.8624 23.8902 18.8624C22.6441 18.8624 21.6039 18.4688 20.7991 17.6927C20.038 16.9604 19.5748 16.0259 19.4204 14.9142H30.2986V14.0142C30.2986 12.0589 29.7107 10.4235 28.5519 9.15191C27.3198 7.82383 25.6994 7.15274 23.7343 7.15274ZM23.7343 9.16288C24.8946 9.16288 25.8818 9.53136 26.671 10.2558C27.3806 10.9206 27.8329 11.7924 28.0169 12.8508H19.4516C19.6356 11.7939 20.0879 10.9206 20.7975 10.2573C21.5851 9.53136 22.5739 9.16288 23.7343 9.16288Z" fill="#1B1B1B"/>
<path d="M37.697 7.5808C36.4992 8.13743 35.6477 8.96845 35.158 10.0535V7.36128H32.9761V20.664H35.158V14.7966C35.158 13.3321 35.5697 12.0542 36.3807 11.0005C37.2369 9.90297 38.3614 9.34633 39.7214 9.34633H40.0723V7.15274H39.8258C38.9977 7.15274 38.2818 7.29699 37.697 7.5808Z" fill="#1B1B1B"/>
<path d="M47.1877 7.5808C45.9899 8.13743 45.1384 8.96845 44.6487 10.0535V7.36128H42.4668V20.664H44.6487V14.7966C44.6487 13.3321 45.0604 12.0542 45.8714 11.0005C46.7276 9.90297 47.8521 9.34633 49.2121 9.34633H49.5614V7.15274H49.315C48.4884 7.15274 47.771 7.29699 47.1877 7.5808Z" fill="#1B1B1B"/>
<path d="M56.8302 17.8782L52.7222 7.36185H50.311L55.662 20.3635L53.2431 25.8404H55.6059L63.3992 7.36185H61.013L56.8302 17.8782Z" fill="#1B1B1B"/>
<path d="M73.3554 13.6833C72.7098 13.4121 71.997 13.1988 71.2391 13.0499C70.4936 12.9041 69.7933 12.7426 69.1539 12.5685C68.5254 12.3976 67.9982 12.1781 67.5865 11.9162C67.1935 11.6669 67.0032 11.3094 67.0032 10.8249C67.0032 9.63798 67.9468 9.05939 69.89 9.05939C71.8411 9.05939 72.8704 9.69286 73.0373 10.9974L73.0497 11.0993H75.2581L75.2425 10.9692C75.1193 9.88101 74.6592 8.99354 73.8763 8.33029C72.939 7.54944 71.6461 7.15274 70.0319 7.15274C68.332 7.15274 67.0282 7.49142 66.1532 8.15624C65.2689 8.83047 64.8198 9.7885 64.8198 11.0068C64.8198 11.8363 65.0443 12.4964 65.4888 12.9699C65.9224 13.4325 66.4745 13.8025 67.128 14.0691C67.7736 14.3325 68.4848 14.541 69.2428 14.69C69.9945 14.8389 70.6963 15.0036 71.3264 15.1839C71.9533 15.3626 72.4789 15.5947 72.8922 15.8738C73.2868 16.1404 73.4786 16.5151 73.4786 17.0184C73.4786 17.7742 73.095 18.2948 72.3058 18.6083C71.9518 18.7432 71.5837 18.8388 71.2141 18.889C70.8414 18.9408 70.4312 18.9658 69.9945 18.9658C69.5656 18.9658 69.1258 18.8969 68.6922 18.7636C67.4976 18.3575 66.8597 17.5954 66.7427 16.432L66.7318 16.3269H64.4751L64.4813 16.4508C64.5515 17.7162 65.074 18.7557 66.03 19.5382C67.0687 20.4241 68.4848 20.8725 70.2394 20.8725C71.8847 20.8725 73.2104 20.526 74.1789 19.8439C75.1614 19.154 75.6589 18.1411 75.6589 16.835C75.6589 15.9898 75.4344 15.314 74.9914 14.8217C74.5625 14.3419 74.0105 13.9593 73.3554 13.6833Z" fill="#1B1B1B"/>
<path d="M88.5874 9.23656C87.5237 7.85204 86.0421 7.15115 84.1799 7.15115C82.1961 7.15115 80.5835 7.82381 79.3873 9.15032C78.2285 10.4564 77.6421 12.0918 77.6421 14.011C77.6421 15.9318 78.2285 17.5672 79.3873 18.8733C80.5835 20.1998 82.1524 20.8725 84.0489 20.8725C86.0062 20.8725 87.5315 20.181 88.5858 18.8153V20.6639H90.7677V7.36126H88.5858V9.23656H88.5874ZM84.3094 18.8623C82.9634 18.8623 81.8546 18.3825 81.0171 17.4386C80.2248 16.5417 79.824 15.3893 79.824 14.0142C79.824 12.6391 80.2248 11.4866 81.0171 10.5897C81.8561 9.64423 82.9634 9.16443 84.3094 9.16443C85.6709 9.16443 86.7595 9.64266 87.5487 10.5866C88.3066 11.485 88.6919 12.6375 88.6919 14.0126C88.6919 15.3893 88.3082 16.5417 87.5487 17.4402C86.7595 18.3841 85.6709 18.8623 84.3094 18.8623Z" fill="#1B1B1B"/>
<path d="M96.6347 3.02324C95.7613 3.75705 95.3184 4.86874 95.3184 6.32696V7.36025H93.0835V9.32022H95.3184V20.6629H97.5003V9.32022H100.517V7.36025H97.5003V6.48532C97.5003 5.61823 97.7186 4.98321 98.1506 4.59905C98.5858 4.21176 99.2548 4.0142 100.139 4.0142H100.517V1.92566H100.244C98.7168 1.92566 97.5018 2.29413 96.6347 3.02324Z" fill="#1B1B1B"/>
<path d="M114.998 14.0126C114.998 12.0574 114.41 10.422 113.251 9.15034C112.021 7.8254 110.401 7.15274 108.435 7.15274C106.47 7.15274 104.85 7.8254 103.618 9.15191C102.459 10.4235 101.871 12.0589 101.871 14.0142C101.871 15.9538 102.486 17.5892 103.697 18.878C104.945 20.203 106.583 20.8741 108.565 20.8741C110.124 20.8741 111.421 20.4978 112.417 19.753C113.409 19.0113 114.145 18.0251 114.601 16.8256L114.661 16.6672H112.291L112.258 16.7299C111.52 18.1442 110.287 18.8624 108.591 18.8624C107.345 18.8624 106.305 18.4688 105.5 17.6927C104.739 16.9588 104.276 16.0243 104.122 14.9142H115V14.0126H114.998ZM108.434 9.16288C109.594 9.16288 110.581 9.53136 111.371 10.2558C112.08 10.9206 112.533 11.7924 112.717 12.8508H104.151C104.335 11.7924 104.788 10.9206 105.497 10.2573C106.286 9.53136 107.274 9.16288 108.434 9.16288Z" fill="#1B1B1B"/>
<path d="M10.4306 7.36949C11.0997 3.62204 9.18447 0.840454 5.92647 0.840454H0V20.5467H7.54066C11.7048 20.5467 15.0813 17.1536 15.0813 12.9656C15.0813 10.3925 13.0102 8.42631 10.4306 7.36949ZM7.54066 18.2418H2.29417V3.14694H5.92647C7.51415 3.14694 8.86788 4.1771 9.36071 5.60709V5.60866C9.4886 5.98184 9.55878 6.38167 9.55878 6.79875C9.55878 7.22524 9.48548 7.63448 9.35135 8.01393C11.3539 8.75872 12.7871 10.6983 12.7871 12.9672C12.7871 15.8757 10.4337 18.2418 7.54066 18.2418Z" fill="white"/>
<path d="M6.77707 9.97972C6.64295 10.0064 6.5057 10.0283 6.37002 10.0409C5.81948 10.0957 5.27362 10.0299 4.75739 9.86212C3.90429 10.6069 3.43018 12.1451 3.43018 13.2301C4.70593 13.5092 6.21094 12.9024 7.33073 12.0463C8.45052 11.1918 8.96519 9.81508 9.04161 8.50426C9.04161 8.50426 9.03849 8.50426 9.03693 8.50426C8.45364 9.33842 7.77521 9.77588 6.77707 9.97972Z" fill="#35D8D0"/>
<path d="M6.37962 9.26507C7.36528 9.13963 8.19187 8.58143 8.69874 7.80529C8.01564 7.1828 7.07676 6.84882 6.09109 6.97426C5.10542 7.0997 4.27884 7.6579 3.77197 8.43404C4.45507 9.05653 5.39395 9.39051 6.37962 9.26507Z" fill="#35D8D0"/>
<path d="M23.7343 7.15274C21.7692 7.15274 20.1472 7.8254 18.9167 9.15191C17.7579 10.4235 17.1699 12.0589 17.1699 14.0142C17.1699 15.9538 17.7844 17.5892 18.9962 18.878C20.2439 20.203 21.8815 20.8741 23.8637 20.8741C25.4233 20.8741 26.7193 20.4978 27.7159 19.753C28.7078 19.0113 29.444 18.0251 29.8994 16.8256L29.9602 16.6672H27.5896L27.5568 16.7299C26.8192 18.1442 25.5855 18.8624 23.8902 18.8624C22.6441 18.8624 21.6039 18.4688 20.7991 17.6927C20.038 16.9604 19.5748 16.0259 19.4204 14.9142H30.2986V14.0142C30.2986 12.0589 29.7107 10.4235 28.5519 9.15191C27.3198 7.82383 25.6994 7.15274 23.7343 7.15274ZM23.7343 9.16288C24.8946 9.16288 25.8818 9.53136 26.671 10.2558C27.3806 10.9206 27.8329 11.7924 28.0169 12.8508H19.4516C19.6356 11.7939 20.0879 10.9206 20.7975 10.2573C21.5851 9.53136 22.5739 9.16288 23.7343 9.16288Z" fill="white"/>
<path d="M37.697 7.5808C36.4992 8.13743 35.6477 8.96845 35.158 10.0535V7.36128H32.9761V20.664H35.158V14.7966C35.158 13.3321 35.5697 12.0542 36.3807 11.0005C37.2369 9.90297 38.3614 9.34633 39.7214 9.34633H40.0723V7.15274H39.8258C38.9977 7.15274 38.2818 7.29699 37.697 7.5808Z" fill="white"/>
<path d="M47.1877 7.5808C45.9899 8.13743 45.1384 8.96845 44.6487 10.0535V7.36128H42.4668V20.664H44.6487V14.7966C44.6487 13.3321 45.0604 12.0542 45.8714 11.0005C46.7276 9.90297 47.8521 9.34633 49.2121 9.34633H49.5614V7.15274H49.315C48.4884 7.15274 47.771 7.29699 47.1877 7.5808Z" fill="white"/>
<path d="M56.8302 17.8782L52.7222 7.36185H50.311L55.662 20.3635L53.2431 25.8404H55.6059L63.3992 7.36185H61.013L56.8302 17.8782Z" fill="white"/>
<path d="M73.3554 13.6833C72.7098 13.4121 71.997 13.1988 71.2391 13.0499C70.4936 12.9041 69.7933 12.7426 69.1539 12.5685C68.5254 12.3976 67.9982 12.1781 67.5865 11.9162C67.1935 11.6669 67.0032 11.3094 67.0032 10.8249C67.0032 9.63798 67.9468 9.05939 69.89 9.05939C71.8411 9.05939 72.8704 9.69286 73.0373 10.9974L73.0497 11.0993H75.2581L75.2425 10.9692C75.1193 9.88101 74.6592 8.99354 73.8763 8.33029C72.939 7.54944 71.6461 7.15274 70.0319 7.15274C68.332 7.15274 67.0282 7.49142 66.1532 8.15624C65.2689 8.83047 64.8198 9.7885 64.8198 11.0068C64.8198 11.8363 65.0443 12.4964 65.4888 12.9699C65.9224 13.4325 66.4745 13.8025 67.128 14.0691C67.7736 14.3325 68.4848 14.541 69.2428 14.69C69.9945 14.8389 70.6963 15.0036 71.3264 15.1839C71.9533 15.3626 72.4789 15.5947 72.8922 15.8738C73.2868 16.1404 73.4786 16.5151 73.4786 17.0184C73.4786 17.7742 73.095 18.2948 72.3058 18.6083C71.9518 18.7432 71.5837 18.8388 71.2141 18.889C70.8414 18.9408 70.4312 18.9658 69.9945 18.9658C69.5656 18.9658 69.1258 18.8969 68.6922 18.7636C67.4976 18.3575 66.8597 17.5954 66.7427 16.432L66.7318 16.3269H64.4751L64.4813 16.4508C64.5515 17.7162 65.074 18.7557 66.03 19.5382C67.0687 20.4241 68.4848 20.8725 70.2394 20.8725C71.8847 20.8725 73.2104 20.526 74.1789 19.8439C75.1614 19.154 75.6589 18.1411 75.6589 16.835C75.6589 15.9898 75.4344 15.314 74.9914 14.8217C74.5625 14.3419 74.0105 13.9593 73.3554 13.6833Z" fill="white"/>
<path d="M88.5874 9.23656C87.5237 7.85204 86.0421 7.15115 84.1799 7.15115C82.1961 7.15115 80.5835 7.82381 79.3873 9.15032C78.2285 10.4564 77.6421 12.0918 77.6421 14.011C77.6421 15.9318 78.2285 17.5672 79.3873 18.8733C80.5835 20.1998 82.1524 20.8725 84.0489 20.8725C86.0062 20.8725 87.5315 20.181 88.5858 18.8153V20.6639H90.7677V7.36126H88.5858V9.23656H88.5874ZM84.3094 18.8623C82.9634 18.8623 81.8546 18.3825 81.0171 17.4386C80.2248 16.5417 79.824 15.3893 79.824 14.0142C79.824 12.6391 80.2248 11.4866 81.0171 10.5897C81.8561 9.64423 82.9634 9.16443 84.3094 9.16443C85.6709 9.16443 86.7595 9.64266 87.5487 10.5866C88.3066 11.485 88.6919 12.6375 88.6919 14.0126C88.6919 15.3893 88.3082 16.5417 87.5487 17.4402C86.7595 18.3841 85.6709 18.8623 84.3094 18.8623Z" fill="white"/>
<path d="M96.6347 3.02324C95.7613 3.75705 95.3184 4.86874 95.3184 6.32696V7.36025H93.0835V9.32022H95.3184V20.6629H97.5003V9.32022H100.517V7.36025H97.5003V6.48532C97.5003 5.61823 97.7186 4.98321 98.1506 4.59905C98.5858 4.21176 99.2548 4.0142 100.139 4.0142H100.517V1.92566H100.244C98.7168 1.92566 97.5018 2.29413 96.6347 3.02324Z" fill="white"/>
<path d="M114.998 14.0126C114.998 12.0574 114.41 10.422 113.251 9.15034C112.021 7.8254 110.401 7.15274 108.435 7.15274C106.47 7.15274 104.85 7.8254 103.618 9.15191C102.459 10.4235 101.871 12.0589 101.871 14.0142C101.871 15.9538 102.486 17.5892 103.697 18.878C104.945 20.203 106.583 20.8741 108.565 20.8741C110.124 20.8741 111.421 20.4978 112.417 19.753C113.409 19.0113 114.145 18.0251 114.601 16.8256L114.661 16.6672H112.291L112.258 16.7299C111.52 18.1442 110.287 18.8624 108.591 18.8624C107.345 18.8624 106.305 18.4688 105.5 17.6927C104.739 16.9588 104.276 16.0243 104.122 14.9142H115V14.0126H114.998ZM108.434 9.16288C109.594 9.16288 110.581 9.53136 111.371 10.2558C112.08 10.9206 112.533 11.7924 112.717 12.8508H104.151C104.335 11.7924 104.788 10.9206 105.497 10.2573C106.286 9.53136 107.274 9.16288 108.434 9.16288Z" fill="white"/>
<path d="M10.4306 7.36949C11.0997 3.62204 9.18447 0.840454 5.92647 0.840454H0V20.5467H7.54066C11.7048 20.5467 15.0813 17.1536 15.0813 12.9656C15.0813 10.3925 13.0102 8.42631 10.4306 7.36949ZM7.54066 18.2418H2.29417V3.14694H5.92647C7.51415 3.14694 8.86788 4.1771 9.36071 5.60709V5.60866C9.4886 5.98184 9.55878 6.38167 9.55878 6.79875C9.55878 7.22524 9.48548 7.63448 9.35135 8.01393C11.3539 8.75872 12.7871 10.6983 12.7871 12.9672C12.7871 15.8757 10.4337 18.2418 7.54066 18.2418Z" fill="white"/>
<path d="M6.77707 9.97972C6.64295 10.0064 6.5057 10.0283 6.37002 10.0409C5.81948 10.0957 5.27362 10.0299 4.75739 9.86212C3.90429 10.6069 3.43018 12.1451 3.43018 13.2301C4.70593 13.5092 6.21094 12.9024 7.33073 12.0463C8.45052 11.1918 8.96519 9.81508 9.04161 8.50426C9.04161 8.50426 9.03849 8.50426 9.03693 8.50426C8.45364 9.33842 7.77521 9.77588 6.77707 9.97972Z" fill="#35D8D0"/>
<path d="M6.37962 9.26507C7.36528 9.13963 8.19187 8.58143 8.69874 7.80529C8.01564 7.1828 7.07676 6.84882 6.09109 6.97426C5.10542 7.0997 4.27884 7.6579 3.77197 8.43404C4.45507 9.05653 5.39395 9.39051 6.37962 9.26507Z" fill="#35D8D0"/>
<path d="M23.7343 7.15274C21.7692 7.15274 20.1472 7.8254 18.9167 9.15191C17.7579 10.4235 17.1699 12.0589 17.1699 14.0142C17.1699 15.9538 17.7844 17.5892 18.9962 18.878C20.2439 20.203 21.8815 20.8741 23.8637 20.8741C25.4233 20.8741 26.7193 20.4978 27.7159 19.753C28.7078 19.0113 29.444 18.0251 29.8994 16.8256L29.9602 16.6672H27.5896L27.5568 16.7299C26.8192 18.1442 25.5855 18.8624 23.8902 18.8624C22.6441 18.8624 21.6039 18.4688 20.7991 17.6927C20.038 16.9604 19.5748 16.0259 19.4204 14.9142H30.2986V14.0142C30.2986 12.0589 29.7107 10.4235 28.5519 9.15191C27.3198 7.82383 25.6994 7.15274 23.7343 7.15274ZM23.7343 9.16288C24.8946 9.16288 25.8818 9.53136 26.671 10.2558C27.3806 10.9206 27.8329 11.7924 28.0169 12.8508H19.4516C19.6356 11.7939 20.0879 10.9206 20.7975 10.2573C21.5851 9.53136 22.5739 9.16288 23.7343 9.16288Z" fill="white"/>
<path d="M37.697 7.5808C36.4992 8.13743 35.6477 8.96845 35.158 10.0535V7.36128H32.9761V20.664H35.158V14.7966C35.158 13.3321 35.5697 12.0542 36.3807 11.0005C37.2369 9.90297 38.3614 9.34633 39.7214 9.34633H40.0723V7.15274H39.8258C38.9977 7.15274 38.2818 7.29699 37.697 7.5808Z" fill="white"/>
<path d="M47.1877 7.5808C45.9899 8.13743 45.1384 8.96845 44.6487 10.0535V7.36128H42.4668V20.664H44.6487V14.7966C44.6487 13.3321 45.0604 12.0542 45.8714 11.0005C46.7276 9.90297 47.8521 9.34633 49.2121 9.34633H49.5614V7.15274H49.315C48.4884 7.15274 47.771 7.29699 47.1877 7.5808Z" fill="white"/>
<path d="M56.8302 17.8782L52.7222 7.36185H50.311L55.662 20.3635L53.2431 25.8404H55.6059L63.3992 7.36185H61.013L56.8302 17.8782Z" fill="white"/>
<path d="M73.3554 13.6833C72.7098 13.4121 71.997 13.1988 71.2391 13.0499C70.4936 12.9041 69.7933 12.7426 69.1539 12.5685C68.5254 12.3976 67.9982 12.1781 67.5865 11.9162C67.1935 11.6669 67.0032 11.3094 67.0032 10.8249C67.0032 9.63798 67.9468 9.05939 69.89 9.05939C71.8411 9.05939 72.8704 9.69286 73.0373 10.9974L73.0497 11.0993H75.2581L75.2425 10.9692C75.1193 9.88101 74.6592 8.99354 73.8763 8.33029C72.939 7.54944 71.6461 7.15274 70.0319 7.15274C68.332 7.15274 67.0282 7.49142 66.1532 8.15624C65.2689 8.83047 64.8198 9.7885 64.8198 11.0068C64.8198 11.8363 65.0443 12.4964 65.4888 12.9699C65.9224 13.4325 66.4745 13.8025 67.128 14.0691C67.7736 14.3325 68.4848 14.541 69.2428 14.69C69.9945 14.8389 70.6963 15.0036 71.3264 15.1839C71.9533 15.3626 72.4789 15.5947 72.8922 15.8738C73.2868 16.1404 73.4786 16.5151 73.4786 17.0184C73.4786 17.7742 73.095 18.2948 72.3058 18.6083C71.9518 18.7432 71.5837 18.8388 71.2141 18.889C70.8414 18.9408 70.4312 18.9658 69.9945 18.9658C69.5656 18.9658 69.1258 18.8969 68.6922 18.7636C67.4976 18.3575 66.8597 17.5954 66.7427 16.432L66.7318 16.3269H64.4751L64.4813 16.4508C64.5515 17.7162 65.074 18.7557 66.03 19.5382C67.0687 20.4241 68.4848 20.8725 70.2394 20.8725C71.8847 20.8725 73.2104 20.526 74.1789 19.8439C75.1614 19.154 75.6589 18.1411 75.6589 16.835C75.6589 15.9898 75.4344 15.314 74.9914 14.8217C74.5625 14.3419 74.0105 13.9593 73.3554 13.6833Z" fill="white"/>
<path d="M88.5874 9.23656C87.5237 7.85204 86.0421 7.15115 84.1799 7.15115C82.1961 7.15115 80.5835 7.82381 79.3873 9.15032C78.2285 10.4564 77.6421 12.0918 77.6421 14.011C77.6421 15.9318 78.2285 17.5672 79.3873 18.8733C80.5835 20.1998 82.1524 20.8725 84.0489 20.8725C86.0062 20.8725 87.5315 20.181 88.5858 18.8153V20.6639H90.7677V7.36126H88.5858V9.23656H88.5874ZM84.3094 18.8623C82.9634 18.8623 81.8546 18.3825 81.0171 17.4386C80.2248 16.5417 79.824 15.3893 79.824 14.0142C79.824 12.6391 80.2248 11.4866 81.0171 10.5897C81.8561 9.64423 82.9634 9.16443 84.3094 9.16443C85.6709 9.16443 86.7595 9.64266 87.5487 10.5866C88.3066 11.485 88.6919 12.6375 88.6919 14.0126C88.6919 15.3893 88.3082 16.5417 87.5487 17.4402C86.7595 18.3841 85.6709 18.8623 84.3094 18.8623Z" fill="white"/>
<path d="M96.6347 3.02324C95.7613 3.75705 95.3184 4.86874 95.3184 6.32696V7.36025H93.0835V9.32022H95.3184V20.6629H97.5003V9.32022H100.517V7.36025H97.5003V6.48532C97.5003 5.61823 97.7186 4.98321 98.1506 4.59905C98.5858 4.21176 99.2548 4.0142 100.139 4.0142H100.517V1.92566H100.244C98.7168 1.92566 97.5018 2.29413 96.6347 3.02324Z" fill="white"/>
<path d="M114.998 14.0126C114.998 12.0574 114.41 10.422 113.251 9.15034C112.021 7.8254 110.401 7.15274 108.435 7.15274C106.47 7.15274 104.85 7.8254 103.618 9.15191C102.459 10.4235 101.871 12.0589 101.871 14.0142C101.871 15.9538 102.486 17.5892 103.697 18.878C104.945 20.203 106.583 20.8741 108.565 20.8741C110.124 20.8741 111.421 20.4978 112.417 19.753C113.409 19.0113 114.145 18.0251 114.601 16.8256L114.661 16.6672H112.291L112.258 16.7299C111.52 18.1442 110.287 18.8624 108.591 18.8624C107.345 18.8624 106.305 18.4688 105.5 17.6927C104.739 16.9588 104.276 16.0243 104.122 14.9142H115V14.0126H114.998ZM108.434 9.16288C109.594 9.16288 110.581 9.53136 111.371 10.2558C112.08 10.9206 112.533 11.7924 112.717 12.8508H104.151C104.335 11.7924 104.788 10.9206 105.497 10.2573C106.286 9.53136 107.274 9.16288 108.434 9.16288Z" fill="white"/>
</svg>
