<svg width="26" height="40" viewBox="0 0 26 40" fill="none" xmlns="http://www.w3.org/2000/svg">
<path d="M10.8343 39.3359C10.6707 39.3644 10.5033 39.3644 10.3397 39.3359C9.98277 39.2282 9.67083 39.0068 9.45133 38.7055C9.23183 38.4041 9.11679 38.0393 9.12371 37.6666V37.4399L10.9786 24.3528H2.03405C1.73241 24.3531 1.43648 24.2706 1.17848 24.1143C0.920474 23.9581 0.710278 23.734 0.570772 23.4666C0.413164 23.1979 0.330078 22.892 0.330078 22.5804C0.330078 22.2689 0.413164 21.9629 0.570772 21.6942L4.69267 14.5015L13.1426 1.06409C13.3303 0.747032 13.6201 0.503052 13.9645 0.372027C14.3089 0.241002 14.6876 0.230682 15.0386 0.342754C15.3955 0.450491 15.7075 0.671878 15.927 0.973224C16.1465 1.27457 16.2615 1.63938 16.2546 2.01212V2.23883L14.3997 15.3259H23.3649C23.6665 15.3256 23.9624 15.4081 24.2204 15.5643C24.4785 15.7206 24.6886 15.9446 24.8282 16.2121C24.9858 16.4808 25.0688 16.7867 25.0688 17.0983C25.0688 17.4098 24.9858 17.7157 24.8282 17.9845L20.7063 25.1772L12.2564 38.6146C12.1011 38.8467 11.8887 39.0349 11.6397 39.1613C11.3906 39.2876 11.1133 39.3477 10.8343 39.3359ZM4.3217 21.179H12.5655C12.7928 21.1816 13.0174 21.2291 13.2265 21.3186C13.4355 21.4081 13.6248 21.5379 13.7836 21.7006C13.9425 21.8632 14.0677 22.0556 14.1522 22.2667C14.2367 22.4778 14.2788 22.7034 14.2761 22.9308V23.1575L13.0601 31.6898L18.2125 23.446L21.1803 18.3348H12.9365C12.7091 18.3322 12.4845 18.2847 12.2755 18.1952C12.0665 18.1057 11.8772 17.9759 11.7183 17.8133C11.5595 17.6506 11.4342 17.4582 11.3497 17.2471C11.2652 17.036 11.2232 16.8104 11.2259 16.583V16.3563L12.4418 7.824L7.28947 16.0678L4.3217 21.179Z" fill="#35D8D0"/>
</svg>
