{
	"materials":[{
		"pbrMetallicRoughness":{
			"baseColorFactor":[1.0,
			1.0,
			1.0,
			1.0],
			"metallicFactor":1.0,
			"roughnessFactor":1.0
		},
		"emissiveFactor":[0.0,
		0.0,
		0.0],
		"alphaMode":"OPAQUE",
		"doubleSided":false,
		"name":""
	},
	{
		"pbrMetallicRoughness":{
			"baseColorFactor":[1.0,
			1.0,
			1.0,
			1.0],
			"metallicFactor":1.0,
			"roughnessFactor":1.0
		},
		"emissiveFactor":[0.0,
		0.0,
		0.0],
		"alphaMode":"OPAQUE",
		"doubleSided":false,
		"name":""
	}],
	"asset":{
		"version":"2.0",
		"generator":"Maxon Cinema 4D 2024.0.2 (#200000219)"
	},
	"scenes":[{
		"nodes":[0]
	}],
	"nodes":[{
		"name":"Hoja berry.svg",
		"translation":[-0.158962681889534,
		0.7815969586372376,
		1.1077133417129517],
		"rotation":[0.0,
		-0.14298945665359498,
		0.0,
		0.9897242188453674],
		"scale":[1.0,
		1.0,
		1.0],
		"children":[1]
	},
	{
		"name":"Null",
		"translation":[-0.3012457489967346,
		-0.33864036202430727,
		0.0],
		"rotation":[0.0,
		0.0,
		0.0,
		-1.0],
		"scale":[1.0,
		1.0,
		1.0],
		"children":[2,
		3]
	},
	{
		"name":"Fill",
		"mesh":0
	},
	{
		"name":"Fill",
		"mesh":1
	}],
	"meshes":[{
		"name":"Fill",
		"primitives":[{
			"attributes":{
				"POSITION":1,
				"NORMAL":2,
				"TEXCOORD_0":3
			},
			"indices":0,
			"material":0
		}]
	},
	{
		"name":"Fill",
		"primitives":[{
			"attributes":{
				"POSITION":5,
				"NORMAL":6,
				"TEXCOORD_0":7
			},
			"indices":4,
			"material":1
		}]
	}],
	"accessors":[{
		"bufferView":0,
		"type":"SCALAR",
		"componentType":5123,
		"count":2808,
		"byteOffset":0,
		"min":[0],
		"max":[2807]
	},
	{
		"bufferView":1,
		"type":"VEC3",
		"componentType":5126,
		"count":2808,
		"byteOffset":0,
		"min":[0.03390130773186684,
		0.4172672927379608,
		-0.42681655287742617],
		"max":[0.5685930848121643,
		0.6772807240486145,
		0.06718344241380692]
	},
	{
		"bufferView":1,
		"type":"VEC3",
		"componentType":5126,
		"count":2808,
		"byteOffset":12,
		"min":[-0.8084873557090759,
		-0.9999862909317017,
		-1.0],
		"max":[0.8084873557090759,
		0.9999342560768127,
		1.0]
	},
	{
		"bufferView":1,
		"type":"VEC2",
		"componentType":5126,
		"count":2808,
		"byteOffset":24,
		"min":[0.0,
		0.0],
		"max":[1.0,
		1.0]
	},
	{
		"bufferView":2,
		"type":"SCALAR",
		"componentType":5123,
		"count":3276,
		"byteOffset":0,
		"min":[0],
		"max":[3275]
	},
	{
		"bufferView":3,
		"type":"VEC3",
		"componentType":5126,
		"count":3276,
		"byteOffset":0,
		"min":[0.0,
		0.0,
		-0.42699646949768069],
		"max":[0.6024914979934692,
		0.5196007490158081,
		0.0670035257935524]
	},
	{
		"bufferView":3,
		"type":"VEC3",
		"componentType":5126,
		"count":3276,
		"byteOffset":12,
		"min":[-1.0,
		-0.9999868869781494,
		-1.0],
		"max":[1.0,
		1.0,
		1.0]
	},
	{
		"bufferView":3,
		"type":"VEC2",
		"componentType":5126,
		"count":3276,
		"byteOffset":24,
		"min":[0.0,
		0.0],
		"max":[1.0,
		1.0]
	}],
	"bufferViews":[{
		"buffer":0,
		"byteOffset":0,
		"byteLength":5616,
		"target":34963
	},
	{
		"buffer":0,
		"byteOffset":5616,
		"byteLength":89856,
		"target":34962,
		"byteStride":32
	},
	{
		"buffer":1,
		"byteOffset":0,
		"byteLength":6552,
		"target":34963
	},
	{
		"buffer":1,
		"byteOffset":6552,
		"byteLength":104832,
		"target":34962,
		"byteStride":32
	}],
	"buffers":[{
		"uri":"data:application/octet-stream;base64,",
		"byteLength":95472
	},
	{
		"uri":"data:application/octet-stream;base64,",
		"byteLength":111384
	}]
}